<svg id="Layer_1" data-name="Layer 1" xmlns="http://www.w3.org/2000/svg" viewBox="0 0 24 24"><defs><style>.cls-1{fill:#f2f2f2;}</style></defs><title>download-file</title><path id="Path_367" data-name="Path 367" class="cls-1" d="M8.2.93h7.56a.91.91,0,0,1,.93.9v0h0V9h4.49a1,1,0,0,1,.92,1,.81.81,0,0,1-.29.65l-9.17,9.56a.94.94,0,0,1-1.32,0h0L2.15,10.64a1,1,0,0,1,0-1.36A.94.94,0,0,1,2.78,9H7.27V1.88A.94.94,0,0,1,8.2.93ZM2.78,23.07h0a.91.91,0,0,1-.93-.9v-.05a1,1,0,0,1,.93-1H21.23a1,1,0,0,1,0,1.91ZM14.88,2.84H9.13v7.1h0a1,1,0,0,1-.93,1H5l7,7.2,7-7.2H15.81a.93.93,0,0,1-.92-1V2.84Z"/></svg>