<svg id="Layer_1" data-name="Layer 1" xmlns="http://www.w3.org/2000/svg" viewBox="0 0 24 24"><defs><style>.cls-1{fill:#4056F4;}</style></defs><title>filter-btn</title><g id="Adjustments"><g id="Group_94" data-name="Group 94"><g id="Group_85" data-name="Group 85"><path id="Path_41" data-name="Path 41" class="cls-1" d="M9.39,19.31V21.4A2.61,2.61,0,0,1,6.79,24H4.69a2.61,2.61,0,0,1-2.6-2.61V19.3A2.61,2.61,0,0,1,4.7,16.7H6.79A2.6,2.6,0,0,1,9.39,19.31ZM3.13,21.4A1.56,1.56,0,0,0,4.7,23H6.79A1.56,1.56,0,0,0,8.35,21.4V19.31a1.56,1.56,0,0,0-1.56-1.57H4.7a1.57,1.57,0,0,0-1.57,1.57Z"/></g><g id="Group_86" data-name="Group 86"><path id="Path_42" data-name="Path 42" class="cls-1" d="M21.91,2.61V4.7a2.61,2.61,0,0,1-2.6,2.61H17.22A2.62,2.62,0,0,1,14.61,4.7V2.61A2.61,2.61,0,0,1,17.22,0h2.09A2.6,2.6,0,0,1,21.91,2.61ZM15.65,4.7a1.57,1.57,0,0,0,1.57,1.57h2.09A1.56,1.56,0,0,0,20.87,4.7V2.61a1.56,1.56,0,0,0-1.56-1.56H17.22a1.56,1.56,0,0,0-1.57,1.56Z"/></g><g id="Group_87" data-name="Group 87"><path id="Path_43" data-name="Path 43" class="cls-1" d="M15.65,11v2.09a2.6,2.6,0,0,1-2.6,2.6H11a2.61,2.61,0,0,1-2.6-2.6V11A2.6,2.6,0,0,1,11,8.35h2.09A2.6,2.6,0,0,1,15.65,11ZM9.39,13.05A1.58,1.58,0,0,0,11,14.62h2.09a1.58,1.58,0,0,0,1.56-1.57V11a1.58,1.58,0,0,0-1.56-1.57H11A1.58,1.58,0,0,0,9.39,11Z"/></g><g id="Group_88" data-name="Group 88"><path id="Path_44" data-name="Path 44" class="cls-1" d="M3.13,20.35a.52.52,0,0,1-.52.52H.52a.52.52,0,0,1,0-1H2.61a.52.52,0,0,1,.52.52Z"/></g><g id="Group_89" data-name="Group 89"><path id="Path_45" data-name="Path 45" class="cls-1" d="M24,20.35a.52.52,0,0,1-.52.52H8.87a.52.52,0,0,1,0-1h14.6a.51.51,0,0,1,.53.51Z"/></g><g id="Group_90" data-name="Group 90"><path id="Path_46" data-name="Path 46" class="cls-1" d="M24,12a.52.52,0,0,1-.52.52H15.13a.52.52,0,1,1,0-1h8.35A.52.52,0,0,1,24,12Z"/></g><g id="Group_91" data-name="Group 91"><path id="Path_47" data-name="Path 47" class="cls-1" d="M9.39,12a.52.52,0,0,1-.52.52H.53a.52.52,0,1,1,0-1H8.87a.52.52,0,0,1,.52.52Z"/></g><g id="Group_92" data-name="Group 92"><path id="Path_48" data-name="Path 48" class="cls-1" d="M15.65,3.66a.52.52,0,0,1-.52.52H.53a.53.53,0,1,1,0-1H15.12a.52.52,0,0,1,.53.52Z"/></g><g id="Group_93" data-name="Group 93"><path id="Path_49" data-name="Path 49" class="cls-1" d="M24,3.66a.52.52,0,0,1-.52.52H21.39a.53.53,0,0,1,0-1h2.09a.52.52,0,0,1,.52.52Z"/></g></g></g></svg>