<svg id="Layer_1" data-name="Layer 1" xmlns="http://www.w3.org/2000/svg" viewBox="0 0 24 24"><defs><style>.cls-1{fill:#f2f2f2;}</style></defs><title>nav-sends</title><g id="Group_641" data-name="Group 641"><path id="Path_363" data-name="Path 363" class="cls-1" d="M20.84,12.06a1.22,1.22,0,0,0-.4-.86L12.83,4.34V1.92a.42.42,0,0,1,.24-.39.36.36,0,0,1,.4.08L23.88,11.74a.38.38,0,0,1,0,.53l0,0L13.47,22.42c-.08.08-.16.08-.32.08H13a.42.42,0,0,1-.24-.39V19.69l7.61-6.85A.86.86,0,0,0,20.84,12.06Z"/><path id="Path_364" data-name="Path 364" class="cls-1" d="M4.09,10.26A9.06,9.06,0,0,1,8.82,8.55V2.7a.43.43,0,0,1,.24-.39.35.35,0,0,1,.4.08l3.37,3h0l7,6.39c.08,0,.16.16.16.24a.58.58,0,0,1-.16.31l-7,6.39h0l-3.36,3a.32.32,0,0,1-.24.08H9.06a.43.43,0,0,1-.24-.39V15.56c-1.53.08-6.65.55-8,5.15A.53.53,0,0,1,.32,21,.36.36,0,0,1,0,20.63C0,15.72,1.37,12.29,4.09,10.26Z"/></g></svg>