<svg id="Layer_1" data-name="Layer 1" xmlns="http://www.w3.org/2000/svg" viewBox="0 0 24 24"><defs><style>.cls-1{fill:#f2f2f2;}</style></defs><title>nav-spro</title><g id="Group_574" data-name="Group 574"><path id="Path_329" data-name="Path 329" class="cls-1" d="M23,.37l0,0a.38.38,0,0,0-.14-.19s0,0,0,0h0s0,0,0,0A.57.57,0,0,0,22.52,0h0a.6.6,0,0,0-.27.06h0l-20.92,12a.54.54,0,0,0-.19.75.52.52,0,0,0,.3.24l6.33,2.1,2.12,6.29s0,0,0,0a.48.48,0,0,0,.17.23h0a.59.59,0,0,0,.33.11h.08a.72.72,0,0,0,.24-.1l.07-.06s0,0,0,0l2.45-3.23h0l.68-.9,5,2.13a.85.85,0,0,0,.22,0h0a.57.57,0,0,0,.25-.06.56.56,0,0,0,.27-.38L23,.64v0A.46.46,0,0,0,23,.37ZM18.15,5.59,11,15.51a.72.72,0,0,0-.09.2h0l-.69,3.44L8.78,14.87ZM11.36,19l.49-2.42,1,.43Z"/><path id="Path_330" data-name="Path 330" class="cls-1" d="M5.68,22.9H5.43a6.89,6.89,0,0,1-1.36-.13.55.55,0,1,0-.22,1.07A8.38,8.38,0,0,0,5.43,24h.3a.53.53,0,0,0,.52-.57.5.5,0,0,0-.49-.53Z"/><path id="Path_331" data-name="Path 331" class="cls-1" d="M9,21.9a8.86,8.86,0,0,1-.92.47.54.54,0,0,0-.29.71.55.55,0,0,0,.72.29,8.61,8.61,0,0,0,1-.53.54.54,0,0,0,.22-.74A.55.55,0,0,0,9,21.88Z"/></g></svg>