<svg id="Layer_1" data-name="Layer 1" xmlns="http://www.w3.org/2000/svg" viewBox="0 0 24 24"><defs><style>.cls-1{fill:#f2f2f2;}</style></defs><title>quitfullscreen-file copy</title><path class="cls-1" d="M17.18,5.9h0a.87.87,0,0,0,.89.85h5.09a.84.84,0,0,0,0-1.68h-3L23.23,2A.86.86,0,1,0,22,.77L18.94,3.83v-3A.85.85,0,0,0,18.1,0a.92.92,0,0,0-.92.84V5.9Z"/><path class="cls-1" d="M5.9,6.82h0a.87.87,0,0,0,.85-.89V.84a.84.84,0,0,0-1.68,0v3L2,.77A.86.86,0,0,0,.77,2L3.83,5.06h-3A.85.85,0,0,0,0,5.9a.92.92,0,0,0,.84.92Z"/><path class="cls-1" d="M6.82,18.1h0a.87.87,0,0,0-.89-.85H.84a.84.84,0,0,0,0,1.68h3L.77,22A.86.86,0,0,0,2,23.23l3.07-3.06v3A.85.85,0,0,0,5.9,24a.92.92,0,0,0,.92-.84V18.1Z"/><path class="cls-1" d="M18.1,17.18h0a.87.87,0,0,0-.85.89v5.09a.84.84,0,0,0,1.68,0v-3L22,23.23A.86.86,0,0,0,23.23,22l-3.06-3.07h3A.85.85,0,0,0,24,18.1a.92.92,0,0,0-.84-.92Z"/></svg>