<svg id="Layer_1" data-name="Layer 1" xmlns="http://www.w3.org/2000/svg" viewBox="0 0 24 24"><defs><style>.cls-1{fill:#f2f2f2;}</style></defs><title>txt-attach</title><path id="Path_270" data-name="Path 270" class="cls-1" d="M8.47,19.56a3.1,3.1,0,0,0,2.19-.91l6.73-7a4.19,4.19,0,0,0-5.94-5.92h0l-2,2.16a.63.63,0,0,0,.92.87l2-2.16a2.93,2.93,0,0,1,4.14,4.16L9.76,17.76a1.82,1.82,0,1,1-2.61-2.54l0,0,6.74-7a.72.72,0,0,1,1,0,.71.71,0,0,1,0,1h0L8,16.36a.62.62,0,0,0,0,.89.65.65,0,0,0,.87,0L15.82,10A2,2,0,1,0,13,7.25h0L6.29,14.3a3.08,3.08,0,0,0,2.18,5.26Z"/><path id="Path_271" data-name="Path 271" class="cls-1" d="M6.65,12.31a.63.63,0,0,0,.46-.2l1.38-1.46a.63.63,0,0,0-.91-.87h0L6.19,11.25a.62.62,0,0,0,0,.89.61.61,0,0,0,.43.17Z"/></svg>