<svg id="Layer_1" data-name="Layer 1" xmlns="http://www.w3.org/2000/svg" viewBox="0 0 24 24"><defs><style>.cls-1{fill:#f2f2f2;}</style></defs><title>txt-bullets</title><g id="Group_524" data-name="Group 524"><g id="Group_523" data-name="Group 523"><g id="Group_520" data-name="Group 520"><path id="Path_272" data-name="Path 272" class="cls-1" d="M19.38,5.3h-12a.55.55,0,0,0-.55.55.55.55,0,0,0,.55.54h12a.54.54,0,0,0,.54-.54A.55.55,0,0,0,19.38,5.3Z"/><path id="Path_273" data-name="Path 273" class="cls-1" d="M19.38,17.3h-12a.55.55,0,0,0-.55.55.55.55,0,0,0,.55.54h12a.54.54,0,0,0,.54-.54A.55.55,0,0,0,19.38,17.3Z"/><path id="Path_274" data-name="Path 274" class="cls-1" d="M7.38,9.39H15a.54.54,0,0,0,.54-.54A.55.55,0,0,0,15,8.3H7.38a.55.55,0,0,0-.55.55A.55.55,0,0,0,7.38,9.39Z"/><path id="Path_275" data-name="Path 275" class="cls-1" d="M19.38,11.3h-12a.55.55,0,0,0-.55.55.55.55,0,0,0,.55.54h12a.54.54,0,0,0,.54-.54A.55.55,0,0,0,19.38,11.3Z"/><path id="Path_276" data-name="Path 276" class="cls-1" d="M7.38,15.39H15a.54.54,0,0,0,.54-.54A.55.55,0,0,0,15,14.3H7.38a.55.55,0,0,0-.55.55A.55.55,0,0,0,7.38,15.39Z"/></g></g><circle id="Ellipse_154" data-name="Ellipse 154" class="cls-1" cx="5.08" cy="6" r="1"/><circle id="Ellipse_155" data-name="Ellipse 155" class="cls-1" cx="5.08" cy="12" r="1"/><circle id="Ellipse_156" data-name="Ellipse 156" class="cls-1" cx="5.08" cy="18" r="1"/></g></svg>