<svg id="Layer_1" data-name="Layer 1" xmlns="http://www.w3.org/2000/svg" viewBox="0 0 24 24"><defs><style>.cls-1,.cls-3,.cls-4{fill:#f2f2f2;}.cls-2,.cls-3,.cls-4{isolation:isolate;}.cls-3,.cls-4{font-size:2px;font-family:Roboto-Bold, Roboto;font-weight:700;}.cls-3{letter-spacing:0.02em;}</style></defs><title>txt-list</title><g id="Group_522" data-name="Group 522"><g id="Group_520" data-name="Group 520"><path id="Path_272" data-name="Path 272" class="cls-1" d="M19.29,5.39h-12a.55.55,0,0,0-.55.54.55.55,0,0,0,.55.55h12a.55.55,0,0,0,.54-.55A.54.54,0,0,0,19.29,5.39Z"/><path id="Path_273" data-name="Path 273" class="cls-1" d="M19.29,17.89h-12a.55.55,0,0,0-.55.54.55.55,0,0,0,.55.55h12a.55.55,0,0,0,.54-.55A.54.54,0,0,0,19.29,17.89Z"/><path id="Path_274" data-name="Path 274" class="cls-1" d="M7.29,9.6h7.62a.55.55,0,0,0,.55-.54.55.55,0,0,0-.55-.55H7.29a.55.55,0,0,0-.54.55A.54.54,0,0,0,7.29,9.6Z"/><path id="Path_275" data-name="Path 275" class="cls-1" d="M19.29,11.64h-12a.55.55,0,0,0-.55.54.55.55,0,0,0,.55.55h12a.55.55,0,0,0,.54-.55A.54.54,0,0,0,19.29,11.64Z"/><path id="Path_276" data-name="Path 276" class="cls-1" d="M7.29,15.85h7.62a.55.55,0,0,0,.55-.54.55.55,0,0,0-.55-.55H7.29a.55.55,0,0,0-.54.55A.54.54,0,0,0,7.29,15.85Z"/></g><g id="Group_521" data-name="Group 521"><g id="_1" data-name=" 1" class="cls-2"><text class="cls-3" transform="translate(4.17 6.58)">1</text></g><g id="_2" data-name=" 2" class="cls-2"><text class="cls-3" transform="translate(4.17 12.58)">2</text></g><g id="_3" data-name=" 3" class="cls-2"><text class="cls-4" transform="translate(4.17 18.58)">3</text></g></g></g></svg>