<svg id="Layer_1" data-name="Layer 1" xmlns="http://www.w3.org/2000/svg" viewBox="0 0 24 24"><defs><style>.cls-1{fill:#f2f2f2;}</style></defs><title>txt-align-left</title><path id="Path_272" data-name="Path 272" class="cls-1" d="M18,5.46H6A.54.54,0,0,0,5.46,6,.55.55,0,0,0,6,6.55H18A.55.55,0,0,0,18.54,6,.54.54,0,0,0,18,5.46Z"/><path id="Path_273" data-name="Path 273" class="cls-1" d="M18,17.46H6a.54.54,0,0,0,0,1.08H18a.54.54,0,0,0,0-1.08Z"/><path id="Path_274" data-name="Path 274" class="cls-1" d="M6,9.55h7.62A.55.55,0,0,0,14.17,9a.55.55,0,0,0-.55-.54H6A.54.54,0,0,0,5.46,9,.55.55,0,0,0,6,9.55Z"/><path id="Path_275" data-name="Path 275" class="cls-1" d="M18,11.46H6a.54.54,0,0,0,0,1.08H18a.54.54,0,0,0,0-1.08Z"/><path id="Path_276" data-name="Path 276" class="cls-1" d="M6,15.54h7.62a.54.54,0,1,0,0-1.08H6a.54.54,0,0,0,0,1.08Z"/></svg>