<svg id="Layer_1" data-name="Layer 1" xmlns="http://www.w3.org/2000/svg" viewBox="0 0 24 24"><defs><style>.cls-1{isolation:isolate;}.cls-2{fill:#f2f2f2;}</style></defs><title>txt-lined</title><g id="S"><g class="cls-1"><path class="cls-2" d="M7.16,14.07,8.61,14a3.27,3.27,0,0,0,.48,1.43,2.64,2.64,0,0,0,1.16.9,4.46,4.46,0,0,0,1.79.34,4.17,4.17,0,0,0,1.55-.26,2.13,2.13,0,0,0,1-.71,1.69,1.69,0,0,0,.33-1,1.51,1.51,0,0,0-.32-1,2.42,2.42,0,0,0-1-.69,20.27,20.27,0,0,0-2.07-.56,10.51,10.51,0,0,1-2.24-.73A3.16,3.16,0,0,1,8,10.64,2.66,2.66,0,0,1,7.6,9.2a3,3,0,0,1,.5-1.64A3.05,3.05,0,0,1,9.56,6.4,5.43,5.43,0,0,1,11.69,6,5.71,5.71,0,0,1,14,6.42a3.2,3.2,0,0,1,1.52,1.22,3.59,3.59,0,0,1,.57,1.83l-1.47.11a2.34,2.34,0,0,0-.81-1.66,3.08,3.08,0,0,0-2-.57,3.25,3.25,0,0,0-2,.51A1.58,1.58,0,0,0,9.08,9.1a1.3,1.3,0,0,0,.45,1,6.1,6.1,0,0,0,2.32.83,15.33,15.33,0,0,1,2.57.74,3.6,3.6,0,0,1,1.5,1.19,2.86,2.86,0,0,1,.48,1.65,3.17,3.17,0,0,1-.53,1.74,3.53,3.53,0,0,1-1.53,1.28,5.32,5.32,0,0,1-2.23.45,6.61,6.61,0,0,1-2.64-.46A3.67,3.67,0,0,1,7.8,16.16,3.87,3.87,0,0,1,7.16,14.07Z"/><path class="cls-2" d="M6.43,13.19V12H17.57v1.19Z"/></g></g></svg>