<svg id="Layer_1" data-name="Layer 1" xmlns="http://www.w3.org/2000/svg" viewBox="0 0 24 24"><defs><style>.cls-1{isolation:isolate;}.cls-2{fill:#f2f2f2;}</style></defs><title>txt-italic</title><g id="I"><g class="cls-1"><path class="cls-2" d="M8.06,17.54A2,2,0,0,0,9,17.22a1.8,1.8,0,0,0,.5-1l2.21-8c.06-.23.11-.42.14-.58a2.17,2.17,0,0,0,.05-.4c0-.31-.08-.5-.25-.58a3.93,3.93,0,0,0-1.06-.19V6h5.34v.46a2,2,0,0,0-.95.32,1.8,1.8,0,0,0-.49,1L12.28,15.8l-.14.62,0,.18a1,1,0,0,0,0,.17q0,.45.24.57a3.4,3.4,0,0,0,1.06.2V18H8.06Z"/></g></g></svg>