<svg id="Layer_1" data-name="Layer 1" xmlns="http://www.w3.org/2000/svg" viewBox="0 0 24 24"><defs><style>.cls-1{fill:#f2f2f2;}</style></defs><title>txt-align-right</title><path id="Path_282" data-name="Path 282" class="cls-1" d="M18,5.46H6A.55.55,0,0,0,5.45,6,.55.55,0,0,0,6,6.55H18A.55.55,0,0,0,18.55,6,.55.55,0,0,0,18,5.46Z"/><path id="Path_283" data-name="Path 283" class="cls-1" d="M18,17.45H6a.55.55,0,0,0-.55.55.55.55,0,0,0,.55.54H18a.55.55,0,0,0,.55-.54A.55.55,0,0,0,18,17.45Z"/><path id="Path_284" data-name="Path 284" class="cls-1" d="M18,8.45H10.37a.55.55,0,0,0,0,1.1H18a.55.55,0,0,0,0-1.1Z"/><path id="Path_285" data-name="Path 285" class="cls-1" d="M18,11.45H6a.55.55,0,0,0-.55.55.55.55,0,0,0,.55.54H18a.55.55,0,0,0,.55-.54A.55.55,0,0,0,18,11.45Z"/><path id="Path_286" data-name="Path 286" class="cls-1" d="M18,14.45H10.37a.55.55,0,0,0-.55.55.55.55,0,0,0,.55.54H18a.55.55,0,0,0,.55-.54A.55.55,0,0,0,18,14.45Z"/></svg>