<svg id="Layer_1" data-name="Layer 1" xmlns="http://www.w3.org/2000/svg" viewBox="0 0 24 24"><defs><style>.cls-1{fill:#f2f2f2;}</style></defs><title>txt-paste</title><path id="Path_288" data-name="Path 288" class="cls-1" d="M7.14,17.84h4.57v.58a.58.58,0,0,0,.58.58h5.14a.57.57,0,0,0,.57-.58V12.59a.59.59,0,0,0-.57-.59H16.29V7.92a1.17,1.17,0,0,0-1.15-1.17H12.86a1.72,1.72,0,0,0-3.43-.08v.08H7.14A1.16,1.16,0,0,0,6,7.92v8.75A1.16,1.16,0,0,0,7.14,17.84Zm9.72,0h-4V13.17h4ZM10.57,6.75a.57.57,0,1,1,1.14,0,0,0,0,0,1,0,0v.59a.58.58,0,0,0,.58.58h.57V9.09H9.43V7.92H10a.57.57,0,0,0,.57-.58ZM7.14,7.92H8.29V9.09a1.14,1.14,0,0,0,1.14,1.16h3.43A1.14,1.14,0,0,0,14,9.09V7.92h1.14V12H12.29a.58.58,0,0,0-.57.59v4.08H7.14Z"/></svg>