<svg id="Layer_1" data-name="Layer 1" xmlns="http://www.w3.org/2000/svg" viewBox="0 0 24 24"><defs><style>.cls-1{fill:#347aff;}</style></defs><title>view-file</title><path id="Path_96" data-name="Path 96" class="cls-1" d="M22.94,11.75a12.51,12.51,0,0,0-21.87,0,.52.52,0,0,0,0,.51,12.53,12.53,0,0,0,21.87,0A.57.57,0,0,0,22.94,11.75ZM6.2,16.05h0A11.55,11.55,0,0,1,2.12,12,11.55,11.55,0,0,1,6.2,8a11.28,11.28,0,0,1,4.39-1.49A5.7,5.7,0,0,0,8,8H8a5.69,5.69,0,0,0,0,8l0,0H8a5.7,5.7,0,0,0,2.63,1.5A11.45,11.45,0,0,1,6.2,16Zm2.5-.76h0A4.66,4.66,0,1,1,12,16.66,4.66,4.66,0,0,1,8.7,15.29Zm9.1.76h0a11.45,11.45,0,0,1-4.39,1.49A5.81,5.81,0,0,0,16,16h0A5.72,5.72,0,0,0,16,8a5.83,5.83,0,0,0-2.62-1.49A11.5,11.5,0,0,1,21.88,12a11.53,11.53,0,0,1-4.08,4ZM12,8.75h0A3.25,3.25,0,1,0,15.25,12,3.26,3.26,0,0,0,12,8.75Zm0,4.75h0A1.51,1.51,0,1,1,13.5,12,1.5,1.5,0,0,1,12,13.5Z"/></svg>