<svg id="Layer_1" data-name="Layer 1" xmlns="http://www.w3.org/2000/svg" viewBox="0 0 24 24"><defs><style>.cls-1{fill:#f2f2f2;}</style></defs><title>fullscreen-file</title><path id="Path_366" data-name="Path 366" class="cls-1" d="M1.73.89h0a.85.85,0,0,0-.84.84V6.87a.86.86,0,0,0,.84.84.92.92,0,0,0,.92-.84v-3L5.72,6.94A.86.86,0,0,0,6.94,5.72L3.88,2.65h3a.85.85,0,0,0,.84-.84A.92.92,0,0,0,6.87.89ZM22.19,23.11h0a.92.92,0,0,0,.92-.84V17.13a.87.87,0,0,0-.9-.84h0a.8.8,0,0,0-.84.75v3.08l-3.07-3.06a.86.86,0,0,0-1.22,1.22h0l3.06,3.07h-3a.84.84,0,0,0,0,1.68h5.06v.08Zm.92-21.3h0A.86.86,0,0,0,22.22,1H17.13a.84.84,0,0,0-.84.84.85.85,0,0,0,.84.85h3L17.06,5.72A.87.87,0,0,0,18.28,7l3.07-3.07v3a.85.85,0,0,0,.84.84.92.92,0,0,0,.92-.84V1.81ZM.89,22.19h0a.85.85,0,0,0,.84.84H6.79a.85.85,0,0,0,0-1.69H3.88l3.06-3.06A.87.87,0,1,0,5.78,17l-.06.07L2.65,20.12v-3a.86.86,0,0,0-.89-.84h0a.85.85,0,0,0-.84.84v5.06Z"/></svg>