<svg xmlns="http://www.w3.org/2000/svg" viewBox="0 0 405.73 439.52"><defs><style>.cls-1{fill:#fff;}</style></defs><title>gpac-wolfears</title><g id="Layer_2" data-name="Layer 2"><g id="Capa_1" data-name="Capa 1"><path class="cls-1" d="M35.53,0c25.21,28.18,50,56.75,75.8,84.4,14.77,15.85,19.56,33.84,14.19,53.95-6.7,25.11-1.82,45.15,19.94,60.73,16.18,11.59,24.27,27.3,26.22,47.89,4,42.18,10.3,84.14,15.47,124.76-33.08,15.79-34.42,19.35-29,67.79-28.72-9.61-58.67-83.78-52.39-137L81.86,324.62C55.06,292.78,27.53,260.09,0,227.4v-7.11C7.55,203.78,14.52,187,22.8,170.82c11.49-22.41,11.81-44.41,8.45-69.66C26.85,68.06,31.32,33.78,32,0Z"/><path class="cls-1" d="M370.2,0c-25.21,28.18-50,56.75-75.79,84.4-14.78,15.85-19.57,33.84-14.2,53.95,6.71,25.11,1.82,45.15-19.94,60.73C244.1,210.67,236,226.38,234.05,247c-4,42.18-10.3,84.14-15.47,124.76,33.08,15.79,34.42,19.35,29,67.79,28.73-9.61,58.67-83.78,52.4-137l23.93,22.12,81.86-97.22v-7.11c-7.55-16.51-14.52-33.32-22.8-49.47-11.49-22.41-11.8-44.41-8.45-69.66,4.4-33.1-.07-67.38-.73-101.16Z"/></g></g></svg>