<svg id="Layer_1" data-name="Layer 1" xmlns="http://www.w3.org/2000/svg" viewBox="0 0 24 24"><defs><style>.cls-1{fill:#f2f2f2;}</style></defs><title>nav-comp</title><g id="Group_572" data-name="Group 572"><g id="Group_572-2" data-name="Group 572-2"><path id="Path_327" data-name="Path 327" class="cls-1" d="M23.66,4l-12-4A.5.5,0,0,0,11,.34.45.45,0,0,0,11,.5V6.15L.33,10A.5.5,0,0,0,0,10.5v13a.5.5,0,0,0,.5.5h23a.5.5,0,0,0,.5-.5V4.5A.49.49,0,0,0,23.66,4ZM5,21.5a.5.5,0,0,1-.5.5h-2a.5.5,0,0,1-.5-.5v-4a.5.5,0,0,1,.5-.5h2a.5.5,0,0,1,.5.5Zm0-6a.5.5,0,0,1-.5.5h-2a.5.5,0,0,1-.5-.5v-4a.5.5,0,0,1,.5-.5h2a.5.5,0,0,1,.5.5Zm5,6a.5.5,0,0,1-.5.5h-2a.5.5,0,0,1-.5-.5v-4a.5.5,0,0,1,.5-.5h2a.5.5,0,0,1,.5.5Zm0-6a.5.5,0,0,1-.5.5h-2a.5.5,0,0,1-.5-.5v-4a.5.5,0,0,1,.5-.5h2a.5.5,0,0,1,.5.5Zm7,6a.5.5,0,0,1-.5.5h-2a.5.5,0,0,1-.5-.5v-4a.5.5,0,0,1,.5-.5h2a.5.5,0,0,1,.5.5Zm0-6a.5.5,0,0,1-.5.5h-2a.5.5,0,0,1-.5-.5v-4a.5.5,0,0,1,.5-.5h2a.5.5,0,0,1,.5.5Zm0-6a.5.5,0,0,1-.5.5h-2a.5.5,0,0,1-.5-.5v-4a.5.5,0,0,1,.5-.5h2a.5.5,0,0,1,.5.5Zm4,12a.5.5,0,0,1-.5.5h-2a.5.5,0,0,1-.5-.5v-4a.5.5,0,0,1,.5-.5h2a.5.5,0,0,1,.5.5Zm0-6a.5.5,0,0,1-.5.5h-2a.5.5,0,0,1-.5-.5v-4a.5.5,0,0,1,.5-.5h2a.5.5,0,0,1,.5.5Zm0-6a.5.5,0,0,1-.5.5h-2a.5.5,0,0,1-.5-.5v-4a.5.5,0,0,1,.5-.5h2a.5.5,0,0,1,.5.5Z"/></g></g></svg>