<svg id="Layer_1" data-name="Layer 1" xmlns="http://www.w3.org/2000/svg" viewBox="0 0 24 24"><defs><style>.cls-1{fill:#f2f2f2;}</style></defs><title>nav-jobs</title><g id="brifcase"><g id="Group_570" data-name="Group 570"><path id="Path_324" data-name="Path 324" class="cls-1" d="M15.5,6h-7A.5.5,0,0,1,8,5.5H8v-2A1.5,1.5,0,0,1,9.5,2h5A1.5,1.5,0,0,1,16,3.5v2a.5.5,0,0,1-.5.5ZM9,5h6V3.5a.5.5,0,0,0-.5-.5h-5a.5.5,0,0,0-.5.5H9Z"/></g><g id="Group_571" data-name="Group 571"><path id="Path_325" data-name="Path 325" class="cls-1" d="M.15,10.94l8.3,2.17a14.23,14.23,0,0,0,7.1,0l8.3-2.17H24V6.5A1.5,1.5,0,0,0,22.5,5H1.5A1.5,1.5,0,0,0,0,6.5v4.43ZM12,9a2,2,0,1,1-2,2v0A2,2,0,0,1,12,9Z"/><path id="Path_326" data-name="Path 326" class="cls-1" d="M15.81,14.12A15.24,15.24,0,0,1,12,14.6a15.24,15.24,0,0,1-3.81-.48L0,12V20.5A1.5,1.5,0,0,0,1.5,22h21A1.5,1.5,0,0,0,24,20.5h0V12Z"/><circle id="Ellipse_157" data-name="Ellipse 157" class="cls-1" cx="12" cy="11" r="1"/></g></g></svg>