<svg id="Layer_1" data-name="Layer 1" xmlns="http://www.w3.org/2000/svg" viewBox="0 0 24 24"><defs><style>.cls-1{fill:#f2f2f2;}</style></defs><title>nav-rolls</title><g id="Group_577" data-name="Group 577"><g id="Group_576" data-name="Group 576"><path id="Path_334" data-name="Path 334" class="cls-1" d="M7.75,4h8.5a.48.48,0,0,0,.47-.5v-1A1.45,1.45,0,0,0,15.31,1H13.63A1.83,1.83,0,0,0,11.12.23a1.8,1.8,0,0,0-.75.77H8.69A1.45,1.45,0,0,0,7.28,2.5v1A.48.48,0,0,0,7.75,4ZM19.08,2h-.94a.48.48,0,0,0-.47.5v1A1.46,1.46,0,0,1,16.25,5H7.75A1.47,1.47,0,0,1,6.33,3.5v-1A.48.48,0,0,0,5.86,2H4.92A1.46,1.46,0,0,0,3.5,3.5v19A1.46,1.46,0,0,0,4.92,24H19.08a1.46,1.46,0,0,0,1.42-1.5V3.5A1.46,1.46,0,0,0,19.08,2ZM6.81,20.5a1,1,0,1,1,.94-1v0a1,1,0,0,1-.94,1Zm0-4a1,1,0,1,1,.94-1v0a1,1,0,0,1-.94,1Zm0-4a1,1,0,1,1,.94-1v0a1,1,0,0,1-.94,1Zm0-4a1,1,0,1,1,.94-1v0a1,1,0,0,1-.94,1ZM13.42,20H9.64a.5.5,0,0,1-.47-.52A.51.51,0,0,1,9.64,19h3.78a.5.5,0,0,1,0,1Zm4.72-4H9.64a.5.5,0,0,1-.47-.52A.51.51,0,0,1,9.64,15h8.5a.5.5,0,0,1,0,1Zm0-4H9.64a.5.5,0,0,1-.47-.52A.51.51,0,0,1,9.64,11h8.5a.5.5,0,0,1,0,1Zm0-4H9.64a.5.5,0,0,1,0-1h8.5a.5.5,0,0,1,0,1Z"/></g></g></svg>