<svg id="Layer_1" data-name="Layer 1" xmlns="http://www.w3.org/2000/svg" viewBox="0 0 24 24"><defs><style>.cls-1{fill:#f2f2f2;}</style></defs><title>nav-dig</title><g id="Group_575" data-name="Group 575"><path id="Path_332" data-name="Path 332" class="cls-1" d="M12,0A8.5,8.5,0,0,0,9.81,16.71l1.72,4.95a.5.5,0,0,0,.65.3.51.51,0,0,0,.29-.3l1.72-4.95A8.5,8.5,0,0,0,12,0Zm0,13A4.51,4.51,0,0,1,7.5,8.5,4.56,4.56,0,0,1,12.12,4,4.56,4.56,0,0,1,16.5,8.5,4.51,4.51,0,0,1,12,13Z"/><path id="Path_333" data-name="Path 333" class="cls-1" d="M14.81,19.13a.49.49,0,0,0-.52.33L13.42,22a1.51,1.51,0,0,1-1.95.91,1.57,1.57,0,0,1-.89-.91l-.87-2.53a.49.49,0,0,0-.52-.33c-1.71.16-5.69.7-5.69,2.37,0,2,5.56,2.5,8.5,2.5s8.5-.52,8.5-2.5C20.5,19.83,16.52,19.29,14.81,19.13Z"/></g></svg>