<svg id="Layer_1" data-name="Layer 1" xmlns="http://www.w3.org/2000/svg" viewBox="0 0 24 24"><defs><style>.cls-1{fill:#f2f2f2;}</style></defs><title>nav-cand</title><g id="Group_573" data-name="Group 573"><g id="Group_573-2" data-name="Group 573-2"><path id="Path_328" data-name="Path 328" class="cls-1" d="M5,6A2.5,2.5,0,1,0,2.43,3.5,2.5,2.5,0,0,0,5,6Zm14.1,0a2.5,2.5,0,1,0-2.51-2.5A2.5,2.5,0,0,0,19.05,6ZM11.92,5A2.5,2.5,0,1,0,9.39,2.5,2.51,2.51,0,0,0,11.91,5h0ZM7.06,16.23a2.68,2.68,0,0,1-.67-2.11l.67-5.8a3.14,3.14,0,0,1,.12-.61.51.51,0,0,0-.35-.62h0A2.74,2.74,0,0,0,6.19,7H3.7A2.53,2.53,0,0,0,1.2,9.19L.56,14.32a1.51,1.51,0,0,0,.36,1.17A1.55,1.55,0,0,0,2,16l.47,6.53a.5.5,0,0,0,.5.47H7a.5.5,0,0,0,.5-.47l.39-5.38a.47.47,0,0,0-.23-.46A2.81,2.81,0,0,1,7.06,16.23Zm9.38-2-.67-5.81A2.66,2.66,0,0,0,13.2,6H10.63A2.65,2.65,0,0,0,8.06,8.43l-.67,5.81a1.64,1.64,0,0,0,.42,1.32,1.51,1.51,0,0,0,1,.51l.56,7.47a.5.5,0,0,0,.5.46h4a.5.5,0,0,0,.5-.46L15,16.07a1.51,1.51,0,0,0,1-.51A1.72,1.72,0,0,0,16.44,14.24Zm7,.08L22.8,9.19A2.52,2.52,0,0,0,20.3,7H17.81a2.4,2.4,0,0,0-.84.15.49.49,0,0,0-.32.6,5.05,5.05,0,0,1,.12.56l.67,5.81a2.65,2.65,0,0,1-.67,2.1,2.47,2.47,0,0,1-.42.37.51.51,0,0,0-.21.44l.4,5.5A.5.5,0,0,0,17,23h4a.5.5,0,0,0,.5-.47L22,16a1.55,1.55,0,0,0,1-.51A1.48,1.48,0,0,0,23.44,14.32Z"/></g></g></svg>