<svg xmlns="http://www.w3.org/2000/svg" width="39" height="30.001" viewBox="0 0 39 30.001">
  <g id="Group_840" data-name="Group 840" transform="translate(-816 -153.875)">
    <g id="Group_676" data-name="Group 676" transform="translate(816 153.876)">
      <g id="Group_572" data-name="Group 572" transform="translate(0 -0.001)">
        <path id="Path_327" data-name="Path 327" d="M29.573,5.033l-15-5a.623.623,0,0,0-.823.593V7.688L.411,12.538A.624.624,0,0,0,0,13.125v16.25A.625.625,0,0,0,.625,30h28.75A.625.625,0,0,0,30,29.375V5.625A.625.625,0,0,0,29.573,5.033ZM6.25,26.875a.625.625,0,0,1-.625.625h-2.5a.625.625,0,0,1-.625-.625v-5a.625.625,0,0,1,.625-.625h2.5a.625.625,0,0,1,.625.625Zm0-7.5A.625.625,0,0,1,5.625,20h-2.5a.625.625,0,0,1-.625-.625v-5a.625.625,0,0,1,.625-.625h2.5a.625.625,0,0,1,.625.625Zm6.25,7.5a.625.625,0,0,1-.625.625h-2.5a.625.625,0,0,1-.625-.625v-5a.625.625,0,0,1,.625-.625h2.5a.625.625,0,0,1,.625.625Zm0-7.5a.625.625,0,0,1-.625.625h-2.5a.625.625,0,0,1-.625-.625v-5a.625.625,0,0,1,.625-.625h2.5a.625.625,0,0,1,.625.625Zm8.75,7.5a.625.625,0,0,1-.625.625h-2.5a.625.625,0,0,1-.625-.625v-5a.625.625,0,0,1,.625-.625h2.5a.625.625,0,0,1,.625.625Zm0-7.5a.625.625,0,0,1-.625.625h-2.5a.625.625,0,0,1-.625-.625v-5a.625.625,0,0,1,.625-.625h2.5a.625.625,0,0,1,.625.625Zm0-7.5a.625.625,0,0,1-.625.625h-2.5a.625.625,0,0,1-.625-.625v-5a.625.625,0,0,1,.625-.625h2.5a.625.625,0,0,1,.625.625Zm5,15a.625.625,0,0,1-.625.625h-2.5a.625.625,0,0,1-.625-.625v-5a.625.625,0,0,1,.625-.625h2.5a.625.625,0,0,1,.625.625Zm0-7.5a.625.625,0,0,1-.625.625h-2.5a.625.625,0,0,1-.625-.625v-5a.625.625,0,0,1,.625-.625h2.5a.625.625,0,0,1,.625.625Zm0-7.5a.625.625,0,0,1-.625.625h-2.5a.625.625,0,0,1-.625-.625v-5a.625.625,0,0,1,.625-.625h2.5a.625.625,0,0,1,.625.625Z" transform="translate(0 0.001)" fill="#20232b"/>
      </g>
    </g>
    <text id="_" data-name="+" transform="translate(851 167)" fill="#20232b" font-size="12" font-family="Roboto-Regular, Roboto"><tspan x="-3.401" y="0">+</tspan></text>
  </g>
</svg>
