<svg xmlns="http://www.w3.org/2000/svg" width="38.303" height="32.367" viewBox="0 0 38.303 32.367">
  <g id="Group_839" data-name="Group 839" transform="translate(-513.697 -155)">
    <g id="Group_675" data-name="Group 675" transform="translate(513.064 156.367)">
      <g id="Group_573" data-name="Group 573" transform="translate(0.633)">
        <path id="Path_328" data-name="Path 328" d="M6.4,7.75a3.264,3.264,0,0,0,3.3-3.229A3.265,3.265,0,0,0,6.4,1.292,3.266,3.266,0,0,0,3.1,4.521,3.265,3.265,0,0,0,6.4,7.75Zm18.474,0a3.264,3.264,0,0,0,3.3-3.229,3.3,3.3,0,0,0-6.6,0A3.265,3.265,0,0,0,24.87,7.75ZM15.519,6.458a3.264,3.264,0,0,0,3.3-3.229,3.3,3.3,0,0,0-6.6,0A3.265,3.265,0,0,0,15.519,6.458Zm-6.366,14.5a3.439,3.439,0,0,1-.87-2.715l.875-7.5a4.962,4.962,0,0,1,.166-.787.635.635,0,0,0-.065-.5.655.655,0,0,0-.4-.3,3.31,3.31,0,0,0-.833-.114H4.766a3.278,3.278,0,0,0-3.273,2.829L.648,18.49a1.912,1.912,0,0,0,.48,1.523,2,2,0,0,0,1.354.651L3.1,29.11a.653.653,0,0,0,.658.6H9.035a.655.655,0,0,0,.658-.6l.508-6.958a.636.636,0,0,0-.31-.594A3.468,3.468,0,0,1,9.154,20.959Zm12.289-2.569-.875-7.5A3.461,3.461,0,0,0,17.2,7.75H13.836a3.46,3.46,0,0,0-3.364,3.136l-.875,7.5a2.161,2.161,0,0,0,.542,1.71,1.966,1.966,0,0,0,1.355.652l.728,9.651a.655.655,0,0,0,.658.6H18.16a.655.655,0,0,0,.658-.6l.728-9.651A1.969,1.969,0,0,0,20.9,20.1,2.165,2.165,0,0,0,21.443,18.389Zm9.174.1-.846-6.62A3.28,3.28,0,0,0,26.5,9.042H23.24a3.33,3.33,0,0,0-1.1.19.643.643,0,0,0-.417.775,5.179,5.179,0,0,1,.156.734l.875,7.5a3.439,3.439,0,0,1-.87,2.715,3.273,3.273,0,0,1-.557.474.638.638,0,0,0-.274.571l.519,7.105a.655.655,0,0,0,.658.6h5.278a.655.655,0,0,0,.658-.6l.616-8.446a2,2,0,0,0,1.354-.651A1.908,1.908,0,0,0,30.617,18.49Z" transform="translate(-0.633)" fill="#20232b"/>
      </g>
    </g>
    <text id="_" data-name="+" transform="translate(548 168)" fill="#20232b" font-size="12" font-family="Roboto-Regular, Roboto"><tspan x="-3.401" y="0">+</tspan></text>
  </g>
</svg>
