<svg id="Layer_1" data-name="Layer 1" xmlns="http://www.w3.org/2000/svg" viewBox="0 0 24 24"><defs><style>.cls-1{isolation:isolate;}.cls-2{fill:#f2f2f2;}</style></defs><title>txt-underline</title><g id="U"><g class="cls-1"><path class="cls-2" d="M14.37,6.22h1.27v5.57a6.61,6.61,0,0,1-.32,2.31,2.85,2.85,0,0,1-1.19,1.39,4.16,4.16,0,0,1-2.25.54,4.63,4.63,0,0,1-2.22-.47,2.61,2.61,0,0,1-1.23-1.35,6.37,6.37,0,0,1-.37-2.42V6.22H9.34v5.56a5.29,5.29,0,0,0,.23,1.85,1.72,1.72,0,0,0,.8.92,2.75,2.75,0,0,0,1.39.33,2.69,2.69,0,0,0,2-.64,3.7,3.7,0,0,0,.6-2.46Z"/><path class="cls-2" d="M7,17.78v-1H17v1Z"/></g></g></svg>