<svg id="Layer_1" data-name="Layer 1" xmlns="http://www.w3.org/2000/svg" viewBox="0 0 24 24"><defs><style>.cls-1{isolation:isolate;}.cls-2{fill:#f2f2f2;}</style></defs><title>txt-bold</title><g id="B"><g class="cls-1"><path class="cls-2" d="M7,6h4.77a13.67,13.67,0,0,1,2.12.12,3.13,3.13,0,0,1,1.24.49,3.06,3.06,0,0,1,.92,1A2.86,2.86,0,0,1,16,10.57a2.77,2.77,0,0,1-1.22,1,3.21,3.21,0,0,1,1.67,1.09,2.88,2.88,0,0,1,.59,1.8,3.57,3.57,0,0,1-.38,1.58,3.27,3.27,0,0,1-1,1.23,3.41,3.41,0,0,1-1.62.57c-.4,0-1.37.07-2.91.08H7ZM9.41,8v2.76H11c.94,0,1.52,0,1.75,0a1.56,1.56,0,0,0,1-.43,1.26,1.26,0,0,0,.36-.93,1.28,1.28,0,0,0-.31-.9,1.37,1.37,0,0,0-.9-.42c-.24,0-.93,0-2.07,0Zm0,4.74V16h2.23a10.57,10.57,0,0,0,1.66-.08,1.47,1.47,0,0,0,.87-.47,1.45,1.45,0,0,0,.34-1,1.6,1.6,0,0,0-.26-.91,1.48,1.48,0,0,0-.76-.54,7.72,7.72,0,0,0-2.13-.18Z"/></g></g></svg>