<svg id="Layer_1" data-name="Layer 1" xmlns="http://www.w3.org/2000/svg" viewBox="0 0 24 24"><defs><style>.cls-1{fill:#f2f2f2;}</style></defs><title>txt-copy</title><path id="Path_287" data-name="Path 287" class="cls-1" d="M18,16.08V7.92a.59.59,0,0,0-.17-.42L15.55,5.17a.56.56,0,0,0-.4-.17H9.43a.58.58,0,0,0-.57.58V7.33H6.57A.59.59,0,0,0,6,7.92v10.5a.58.58,0,0,0,.57.58h8a.58.58,0,0,0,.57-.58V16.67h2.29a.59.59,0,0,0,.57-.59ZM16.62,7.92H15.14V6.41ZM14,17.83H7.14V8.5H8.86v7.58a.58.58,0,0,0,.57.59H14ZM10,15.5V6.17h4V8.5a.57.57,0,0,0,.57.58h2.29V15.5Z"/></svg>