<svg id="Layer_1" data-name="Layer 1" xmlns="http://www.w3.org/2000/svg" viewBox="0 0 24 24"><defs><style>.cls-1{fill:#f2f2f2;}</style></defs><title>txt-align-center</title><path id="Path_277" data-name="Path 277" class="cls-1" d="M18,5.46H6A.55.55,0,0,0,5.45,6,.55.55,0,0,0,6,6.55H18A.55.55,0,0,0,18.55,6,.55.55,0,0,0,18,5.46Z"/><path id="Path_278" data-name="Path 278" class="cls-1" d="M18,17.45H6a.55.55,0,0,0-.55.55.55.55,0,0,0,.55.54H18a.55.55,0,0,0,.55-.54A.55.55,0,0,0,18,17.45Z"/><path id="Path_279" data-name="Path 279" class="cls-1" d="M15.82,9.55a.55.55,0,0,0,0-1.1H8.18a.55.55,0,0,0,0,1.1Z"/><path id="Path_280" data-name="Path 280" class="cls-1" d="M18,11.45H6a.55.55,0,0,0-.55.55.55.55,0,0,0,.55.54H18a.55.55,0,0,0,.55-.54A.55.55,0,0,0,18,11.45Z"/><path id="Path_281" data-name="Path 281" class="cls-1" d="M15.82,15.54a.54.54,0,0,0,.54-.54.55.55,0,0,0-.54-.55H8.18a.55.55,0,0,0-.54.55.54.54,0,0,0,.54.54Z"/></svg>