<svg xmlns="http://www.w3.org/2000/svg" width="82.795" height="233" viewBox="0 0 82.795 233"><defs><style>.a{fill:#fb484a;}.b{fill:#ff1112;}</style></defs><g transform="translate(101.794 251) rotate(180)"><g transform="translate(-14.719 -28.604)"><rect class="a" width="2.064" height="2.064" transform="translate(33.718 46.604)"/><rect class="a" width="2.064" height="2.064" transform="translate(47.173 46.604)"/><rect class="a" width="2.064" height="2.064" transform="translate(60.629 46.604)"/><rect class="a" width="2.064" height="2.064" transform="translate(74.084 46.604)"/><rect class="a" width="2.064" height="2.064" transform="translate(87.539 46.604)"/><rect class="a" width="2.064" height="2.064" transform="translate(100.994 46.604)"/><rect class="a" width="2.064" height="2.064" transform="translate(114.449 46.604)"/><rect class="a" width="2.064" height="2.064" transform="translate(33.718 57.297)"/><rect class="a" width="2.064" height="2.064" transform="translate(47.173 57.297)"/><rect class="a" width="2.064" height="2.064" transform="translate(60.629 57.297)"/><rect class="a" width="2.064" height="2.064" transform="translate(74.084 57.297)"/><rect class="a" width="2.064" height="2.064" transform="translate(87.539 57.297)"/><rect class="a" width="2.064" height="2.064" transform="translate(100.994 57.297)"/><rect class="a" width="2.064" height="2.064" transform="translate(114.449 57.297)"/><rect class="a" width="2.064" height="2.064" transform="translate(33.718 67.99)"/><rect class="a" width="2.064" height="2.064" transform="translate(47.173 67.99)"/><rect class="a" width="2.064" height="2.064" transform="translate(60.629 67.99)"/><rect class="a" width="2.064" height="2.064" transform="translate(74.084 67.99)"/><rect class="a" width="2.064" height="2.064" transform="translate(87.539 67.99)"/><rect class="a" width="2.064" height="2.064" transform="translate(100.994 67.99)"/><rect class="a" width="2.064" height="2.064" transform="translate(114.449 67.99)"/><rect class="a" width="2.064" height="2.064" transform="translate(33.718 78.683)"/><rect class="a" width="2.064" height="2.064" transform="translate(47.173 78.683)"/><rect class="a" width="2.064" height="2.064" transform="translate(60.629 78.683)"/><rect class="a" width="2.064" height="2.064" transform="translate(74.084 78.683)"/><rect class="a" width="2.064" height="2.064" transform="translate(87.539 78.683)"/><rect class="a" width="2.064" height="2.064" transform="translate(100.994 78.683)"/><rect class="a" width="2.064" height="2.064" transform="translate(114.449 78.683)"/><rect class="a" width="2.064" height="2.064" transform="translate(33.718 89.376)"/><rect class="a" width="2.064" height="2.064" transform="translate(47.173 89.376)"/><rect class="a" width="2.064" height="2.064" transform="translate(60.629 89.376)"/><rect class="a" width="2.064" height="2.064" transform="translate(74.084 89.376)"/><rect class="a" width="2.064" height="2.064" transform="translate(87.539 89.376)"/><rect class="a" width="2.064" height="2.064" transform="translate(100.994 89.376)"/><rect class="a" width="2.064" height="2.064" transform="translate(114.449 89.376)"/><rect class="a" width="2.064" height="2.064" transform="translate(33.718 100.069)"/><rect class="a" width="2.064" height="2.064" transform="translate(47.173 100.069)"/><rect class="a" width="2.064" height="2.064" transform="translate(60.629 100.069)"/><rect class="a" width="2.064" height="2.064" transform="translate(74.084 100.069)"/><rect class="a" width="2.064" height="2.064" transform="translate(87.539 100.069)"/><rect class="a" width="2.064" height="2.064" transform="translate(100.994 100.069)"/><rect class="a" width="2.064" height="2.064" transform="translate(114.449 100.069)"/><rect class="a" width="2.064" height="2.064" transform="translate(33.718 110.762)"/><rect class="a" width="2.064" height="2.064" transform="translate(47.173 110.762)"/><rect class="a" width="2.064" height="2.064" transform="translate(60.629 110.762)"/><rect class="a" width="2.064" height="2.064" transform="translate(74.084 110.762)"/><rect class="a" width="2.064" height="2.064" transform="translate(87.539 110.762)"/><rect class="a" width="2.064" height="2.064" transform="translate(100.994 110.762)"/><rect class="a" width="2.064" height="2.064" transform="translate(114.449 110.762)"/><rect class="a" width="2.064" height="2.064" transform="translate(33.718 121.455)"/><rect class="a" width="2.064" height="2.064" transform="translate(47.173 121.455)"/><rect class="a" width="2.064" height="2.064" transform="translate(60.629 121.455)"/><rect class="a" width="2.064" height="2.064" transform="translate(74.084 121.455)"/><rect class="a" width="2.064" height="2.064" transform="translate(87.539 121.455)"/><rect class="a" width="2.064" height="2.064" transform="translate(100.994 121.455)"/><rect class="a" width="2.064" height="2.064" transform="translate(114.449 121.455)"/><rect class="a" width="2.064" height="2.064" transform="translate(33.718 132.148)"/><rect class="a" width="2.064" height="2.064" transform="translate(47.173 132.148)"/><rect class="a" width="2.064" height="2.064" transform="translate(60.629 132.148)"/><rect class="a" width="2.064" height="2.064" transform="translate(74.084 132.148)"/><rect class="a" width="2.064" height="2.064" transform="translate(87.539 132.148)"/><rect class="a" width="2.064" height="2.064" transform="translate(100.994 132.148)"/><rect class="a" width="2.064" height="2.064" transform="translate(114.449 132.148)"/><rect class="a" width="2.064" height="2.064" transform="translate(33.718 142.841)"/><rect class="a" width="2.064" height="2.064" transform="translate(47.173 142.841)"/><rect class="a" width="2.064" height="2.064" transform="translate(60.629 142.841)"/><rect class="a" width="2.064" height="2.064" transform="translate(74.084 142.841)"/><rect class="a" width="2.064" height="2.064" transform="translate(87.539 142.841)"/><rect class="a" width="2.064" height="2.064" transform="translate(100.994 142.841)"/><rect class="a" width="2.064" height="2.064" transform="translate(114.449 142.841)"/></g><rect class="b" width="4" height="120" transform="translate(19 131)"/></g></svg>